<svg width="180" height="180" viewBox="0 0 180 180" fill="none" xmlns="http://www.w3.org/2000/svg">
<rect width="180" height="180" rx="20" fill="url(#paint0_linear_9_2)"/>
<mask id="mask0_9_2" style="mask-type:alpha" maskUnits="userSpaceOnUse" x="0" y="0" width="180" height="180">
<rect width="180" height="180" rx="20" fill="url(#paint1_linear_9_2)"/>
</mask>
<g mask="url(#mask0_9_2)">
<line y1="-50" x2="216.494" y2="-50" transform="matrix(0.874865 -0.484366 0.343979 0.938977 -30.2239 83.3945)" stroke="url(#paint2_linear_9_2)" stroke-width="100"/>
<line y1="-50" x2="216.494" y2="-50" transform="matrix(0.874865 -0.484366 0.343979 0.938977 63 294.862)" stroke="url(#paint3_linear_9_2)" stroke-width="100"/>
</g>
<path d="M97.6284 46L82 134.633" stroke="#1B4789" stroke-width="12"/>
<line y1="-6" x2="45" y2="-6" transform="matrix(-0.819152 -0.573576 -0.573576 0.819152 68.8618 119.811)" stroke="#1B4789" stroke-width="12"/>
<line x1="72.3033" y1="61.9149" x2="35.4415" y2="87.7259" stroke="#1B4789" stroke-width="12"/>
<line x1="6" y1="-6" x2="9" y2="-6" transform="matrix(0 1 1 0 42.8432 81)" stroke="#1B4789" stroke-width="12" stroke-linecap="round"/>
<line x1="108.559" y1="115.896" x2="145.42" y2="90.0851" stroke="#1B4789" stroke-width="12"/>
<line y1="-6" x2="45" y2="-6" transform="matrix(0.819152 0.573576 0.573576 -0.819152 112 58)" stroke="#1B4789" stroke-width="12"/>
<line x1="144.019" y1="88" x2="144.019" y2="91" stroke="#1B4789" stroke-width="12" stroke-linecap="round"/>
<defs>
<linearGradient id="paint0_linear_9_2" x1="90" y1="0" x2="90" y2="180" gradientUnits="userSpaceOnUse">
<stop stop-color="#D5FA85"/>
<stop offset="1" stop-color="#48D7EA"/>
</linearGradient>
<linearGradient id="paint1_linear_9_2" x1="90" y1="0" x2="90" y2="180" gradientUnits="userSpaceOnUse">
<stop stop-color="#48D7EA"/>
<stop offset="1" stop-color="#D5FA85"/>
</linearGradient>
<linearGradient id="paint2_linear_9_2" x1="0" y1="0.5" x2="216.494" y2="0.5" gradientUnits="userSpaceOnUse">
<stop stop-color="#48D7EA"/>
<stop offset="1" stop-color="#2AB9E9"/>
</linearGradient>
<linearGradient id="paint3_linear_9_2" x1="0" y1="0.5" x2="216.494" y2="0.5" gradientUnits="userSpaceOnUse">
<stop stop-color="#48B910"/>
<stop offset="1" stop-color="#D5FA85"/>
</linearGradient>
</defs>
</svg>
