<svg width="700" height="319" viewBox="0 0 700 319" fill="none" xmlns="http://www.w3.org/2000/svg">
<rect x="31" y="70" width="180" height="180" rx="20" fill="url(#paint0_linear_3_36)"/>
<path d="M246.744 190V127H276.534C283.494 127 289.614 128.29 294.894 130.87C300.174 133.45 304.284 137.08 307.224 141.76C310.224 146.44 311.724 152.02 311.724 158.5C311.724 164.92 310.224 170.5 307.224 175.24C304.284 179.92 300.174 183.55 294.894 186.13C289.614 188.71 283.494 190 276.534 190H246.744ZM264.564 175.78H275.814C279.414 175.78 282.534 175.12 285.174 173.8C287.874 172.42 289.974 170.44 291.474 167.86C292.974 165.22 293.724 162.1 293.724 158.5C293.724 154.84 292.974 151.72 291.474 149.14C289.974 146.56 287.874 144.61 285.174 143.29C282.534 141.91 279.414 141.22 275.814 141.22H264.564V175.78ZM345.85 190.81C340.09 190.81 335.05 189.73 330.73 187.57C326.47 185.35 323.14 182.35 320.74 178.57C318.4 174.73 317.23 170.38 317.23 165.52C317.23 160.66 318.37 156.34 320.65 152.56C322.99 148.72 326.2 145.75 330.28 143.65C334.36 141.49 338.95 140.41 344.05 140.41C348.85 140.41 353.23 141.4 357.19 143.38C361.15 145.3 364.3 148.15 366.64 151.93C368.98 155.71 370.15 160.3 370.15 165.7C370.15 166.3 370.12 166.99 370.06 167.77C370 168.55 369.94 169.27 369.88 169.93H331.27V160.93H360.79L354.31 163.45C354.37 161.23 353.95 159.31 353.05 157.69C352.21 156.07 351.01 154.81 349.45 153.91C347.95 153.01 346.18 152.56 344.14 152.56C342.1 152.56 340.3 153.01 338.74 153.91C337.24 154.81 336.07 156.1 335.23 157.78C334.39 159.4 333.97 161.32 333.97 163.54V166.15C333.97 168.55 334.45 170.62 335.41 172.36C336.43 174.1 337.87 175.45 339.73 176.41C341.59 177.31 343.81 177.76 346.39 177.76C348.79 177.76 350.83 177.43 352.51 176.77C354.25 176.05 355.96 174.97 357.64 173.53L366.64 182.89C364.3 185.47 361.42 187.45 358 188.83C354.58 190.15 350.53 190.81 345.85 190.81ZM390.745 190L370.675 141.22H388.225L404.245 181.99H395.425L412.255 141.22H428.545L408.385 190H390.745Z" fill="url(#paint1_linear_3_36)"/>
<path d="M455.74 191.26C450.58 191.26 445.6 190.63 440.8 189.37C436.06 188.05 432.19 186.37 429.19 184.33L435.04 171.19C437.86 172.99 441.1 174.49 444.76 175.69C448.48 176.83 452.17 177.4 455.83 177.4C458.29 177.4 460.27 177.19 461.77 176.77C463.27 176.29 464.35 175.69 465.01 174.97C465.73 174.19 466.09 173.29 466.09 172.27C466.09 170.83 465.43 169.69 464.11 168.85C462.79 168.01 461.08 167.32 458.98 166.78C456.88 166.24 454.54 165.7 451.96 165.16C449.44 164.62 446.89 163.93 444.31 163.09C441.79 162.25 439.48 161.17 437.38 159.85C435.28 158.47 433.57 156.7 432.25 154.54C430.93 152.32 430.27 149.53 430.27 146.17C430.27 142.39 431.29 138.97 433.33 135.91C435.43 132.85 438.55 130.39 442.69 128.53C446.83 126.67 451.99 125.74 458.17 125.74C462.31 125.74 466.36 126.22 470.32 127.18C474.34 128.08 477.91 129.43 481.03 131.23L475.54 144.46C472.54 142.84 469.57 141.64 466.63 140.86C463.69 140.02 460.84 139.6 458.08 139.6C455.62 139.6 453.64 139.87 452.14 140.41C450.64 140.89 449.56 141.55 448.9 142.39C448.24 143.23 447.91 144.19 447.91 145.27C447.91 146.65 448.54 147.76 449.8 148.6C451.12 149.38 452.83 150.04 454.93 150.58C457.09 151.06 459.43 151.57 461.95 152.11C464.53 152.65 467.08 153.34 469.6 154.18C472.18 154.96 474.52 156.04 476.62 157.42C478.72 158.74 480.4 160.51 481.66 162.73C482.98 164.89 483.64 167.62 483.64 170.92C483.64 174.58 482.59 177.97 480.49 181.09C478.45 184.15 475.36 186.61 471.22 188.47C467.14 190.33 461.98 191.26 455.74 191.26ZM491.061 190V123.22H508.161V190H491.061ZM539.794 190.81C535.834 190.81 532.264 190.03 529.084 188.47C525.964 186.91 523.504 184.48 521.704 181.18C519.964 177.82 519.094 173.59 519.094 168.49V141.22H536.194V165.7C536.194 169.48 536.884 172.18 538.264 173.8C539.704 175.42 541.714 176.23 544.294 176.23C545.974 176.23 547.504 175.84 548.884 175.06C550.264 174.28 551.374 173.05 552.214 171.37C553.054 169.63 553.474 167.41 553.474 164.71V141.22H570.574V190H554.284V176.23L557.434 180.1C555.754 183.7 553.324 186.4 550.144 188.2C546.964 189.94 543.514 190.81 539.794 190.81ZM605.439 208.27C600.759 208.27 596.289 207.73 592.029 206.65C587.829 205.57 584.229 203.98 581.229 201.88L587.439 189.91C589.479 191.53 591.999 192.79 594.999 193.69C598.059 194.65 601.029 195.13 603.909 195.13C608.529 195.13 611.859 194.11 613.899 192.07C615.939 190.09 616.959 187.18 616.959 183.34V177.58L617.859 163.9L617.769 150.13V141.22H634.059V181.09C634.059 190.33 631.569 197.17 626.589 201.61C621.609 206.05 614.559 208.27 605.439 208.27ZM602.469 187.48C598.149 187.48 594.159 186.52 590.499 184.6C586.899 182.62 583.989 179.89 581.769 176.41C579.609 172.87 578.529 168.7 578.529 163.9C578.529 159.1 579.609 154.96 581.769 151.48C583.989 147.94 586.899 145.21 590.499 143.29C594.159 141.37 598.149 140.41 602.469 140.41C606.609 140.41 610.149 141.25 613.089 142.93C616.029 144.55 618.249 147.1 619.749 150.58C621.309 154.06 622.089 158.5 622.089 163.9C622.089 169.3 621.309 173.74 619.749 177.22C618.249 180.7 616.029 183.28 613.089 184.96C610.149 186.64 606.609 187.48 602.469 187.48ZM606.519 173.89C608.559 173.89 610.359 173.47 611.919 172.63C613.539 171.79 614.799 170.62 615.699 169.12C616.659 167.62 617.139 165.88 617.139 163.9C617.139 161.92 616.659 160.18 615.699 158.68C614.799 157.18 613.539 156.04 611.919 155.26C610.359 154.42 608.559 154 606.519 154C604.479 154 602.649 154.42 601.029 155.26C599.409 156.04 598.119 157.18 597.159 158.68C596.259 160.18 595.809 161.92 595.809 163.9C595.809 165.88 596.259 167.62 597.159 169.12C598.119 170.62 599.409 171.79 601.029 172.63C602.649 173.47 604.479 173.89 606.519 173.89Z" fill="url(#paint2_linear_3_36)"/>
<mask id="mask0_3_36" style="mask-type:alpha" maskUnits="userSpaceOnUse" x="31" y="70" width="180" height="180">
<rect x="31" y="70" width="180" height="180" rx="20" fill="url(#paint3_linear_3_36)"/>
</mask>
<g mask="url(#mask0_3_36)">
<line y1="-50" x2="216.494" y2="-50" transform="matrix(0.874865 -0.484366 0.343979 0.938977 0.776123 153.395)" stroke="url(#paint4_linear_3_36)" stroke-width="100"/>
<line y1="-50" x2="216.494" y2="-50" transform="matrix(0.874865 -0.484366 0.343979 0.938977 94 364.862)" stroke="url(#paint5_linear_3_36)" stroke-width="100"/>
</g>
<path d="M128.628 116L113 204.633" stroke="#1B4789" stroke-width="12"/>
<line y1="-6" x2="45" y2="-6" transform="matrix(-0.819152 -0.573576 -0.573576 0.819152 99.8618 189.811)" stroke="#1B4789" stroke-width="12"/>
<line x1="103.303" y1="131.915" x2="66.4415" y2="157.726" stroke="#1B4789" stroke-width="12"/>
<line x1="6" y1="-6" x2="9" y2="-6" transform="matrix(0 1 1 0 73.8432 151)" stroke="#1B4789" stroke-width="12" stroke-linecap="round"/>
<line x1="139.559" y1="185.896" x2="176.42" y2="160.085" stroke="#1B4789" stroke-width="12"/>
<line y1="-6" x2="45" y2="-6" transform="matrix(0.819152 0.573576 0.573576 -0.819152 143 128)" stroke="#1B4789" stroke-width="12"/>
<line x1="175.019" y1="158" x2="175.019" y2="161" stroke="#1B4789" stroke-width="12" stroke-linecap="round"/>
<defs>
<linearGradient id="paint0_linear_3_36" x1="121" y1="70" x2="121" y2="250" gradientUnits="userSpaceOnUse">
<stop stop-color="#D5FA85"/>
<stop offset="1" stop-color="#48D7EA"/>
</linearGradient>
<linearGradient id="paint1_linear_3_36" x1="211" y1="157.5" x2="669" y2="157.5" gradientUnits="userSpaceOnUse">
<stop stop-color="#2AB9E9"/>
<stop offset="1" stop-color="#1B4789"/>
</linearGradient>
<linearGradient id="paint2_linear_3_36" x1="211" y1="157.5" x2="669" y2="157.5" gradientUnits="userSpaceOnUse">
<stop stop-color="#0D7DE5"/>
<stop offset="1" stop-color="#48B910"/>
</linearGradient>
<linearGradient id="paint3_linear_3_36" x1="121" y1="70" x2="121" y2="250" gradientUnits="userSpaceOnUse">
<stop stop-color="#48D7EA"/>
<stop offset="1" stop-color="#D5FA85"/>
</linearGradient>
<linearGradient id="paint4_linear_3_36" x1="0" y1="0.5" x2="216.494" y2="0.5" gradientUnits="userSpaceOnUse">
<stop stop-color="#48D7EA"/>
<stop offset="1" stop-color="#2AB9E9"/>
</linearGradient>
<linearGradient id="paint5_linear_3_36" x1="0" y1="0.5" x2="216.494" y2="0.5" gradientUnits="userSpaceOnUse">
<stop stop-color="#48B910"/>
<stop offset="1" stop-color="#D5FA85"/>
</linearGradient>
</defs>
</svg>
