<svg version="1.2" xmlns="http://www.w3.org/2000/svg" viewBox="0 0 714 271" width="250" height="95">
	<defs>
		<linearGradient id="g1" x2="1" gradientUnits="userSpaceOnUse" gradientTransform="matrix(0,180,-180,0,128,46)">
			<stop offset="0" stop-color="#d5fa85"/>
			<stop offset="1" stop-color="#48d7ea"/>
		</linearGradient>
		<clipPath clipPathUnits="userSpaceOnUse" id="cp1">
			<path d="m58 46h140c11.05 0 20 8.95 20 20v140c0 11.05-8.95 20-20 20h-140c-11.05 0-20-8.95-20-20v-140c0-11.05 8.95-20 20-20z"/>
		</clipPath>
		<linearGradient id="g2" x2="1" gradientUnits="userSpaceOnUse" gradientTransform="matrix(NaN,NaN,NaN,NaN,NaN,NaN)">
			<stop offset="0" stop-color="#48d7ea"/>
			<stop offset="1" stop-color="#2ab9e9"/>
		</linearGradient>
		<linearGradient id="g3" x2="1" gradientUnits="userSpaceOnUse" gradientTransform="matrix(NaN,NaN,NaN,NaN,NaN,NaN)">
			<stop offset="0" stop-color="#48b910"/>
			<stop offset="1" stop-color="#d5fa85"/>
		</linearGradient>
		<linearGradient id="g4" x2="1" gradientUnits="userSpaceOnUse" gradientTransform="matrix(458,0,0,160.753,218,133.5)">
			<stop offset="0" stop-color="#2ab9e9"/>
			<stop offset="1" stop-color="#1b4789"/>
		</linearGradient>
		<linearGradient id="g5" x2="1" gradientUnits="userSpaceOnUse" gradientTransform="matrix(458,0,0,190.136,218,133.5)">
			<stop offset="0" stop-color="#0d7de5"/>
			<stop offset="1" stop-color="#48b910"/>
		</linearGradient>
	</defs>
	<style>
		.s0 { fill: url(#g1) } 
		.s1 { fill: none;stroke: url(#g2);stroke-width: 99.4 } 
		.s2 { fill: none;stroke: url(#g3);stroke-width: 99.4 } 
		.s3 { fill: none;stroke: #1b4789;stroke-width: 12 } 
		.s4 { fill: none;stroke: #1b4789;stroke-linecap: round;stroke-width: 12 } 
		.s5 { fill: url(#g4) } 
		.s6 { fill: url(#g5) } 
	</style>
	<path fill-rule="evenodd" class="s0" d="m58 46h140c11.05 0 20 8.95 20 20v140c0 11.05-8.95 20-20 20h-140c-11.05 0-20-8.95-20-20v-140c0-11.05 8.95-20 20-20z"/>
	<g id="Clip-Path" clip-path="url(#cp1)">
		<g>
			<path fill-rule="evenodd" class="s1" d="m-9.42 82.45l189.4-104.87"/>
			<path fill-rule="evenodd" class="s2" d="m83.8 293.91l189.4-104.86"/>
		</g>
	</g>
	<path class="s3" d="m135.63 92l-15.63 88.63"/>
	<path fill-rule="evenodd" class="s3" d="m110.3 160.9l-36.86-25.81"/>
	<path fill-rule="evenodd" class="s3" d="m110.3 107.92l-36.86 25.81"/>
	<path fill-rule="evenodd" class="s4" d="m74.84 133v3"/>
	<path fill-rule="evenodd" class="s3" d="m146.56 161.9l36.86-25.81"/>
	<path fill-rule="evenodd" class="s3" d="m146.56 108.91l36.86 25.82"/>
	<path fill-rule="evenodd" class="s4" d="m182.02 134v3"/>
	<path class="s5" d="m253.74 166v-63h29.79q10.44 0 18.36 3.87 7.92 3.87 12.33 10.89 4.5 7.02 4.5 16.74 0 9.63-4.5 16.74-4.41 7.02-12.33 10.89-7.92 3.87-18.36 3.87zm17.82-14.22h11.25q5.4 0 9.36-1.98 4.05-2.07 6.3-5.94 2.25-3.96 2.25-9.36 0-5.49-2.25-9.36-2.25-3.87-6.3-5.85-3.96-2.07-9.36-2.07h-11.25zm81.29 15.03q-8.64 0-15.12-3.24-6.39-3.33-9.99-9-3.51-5.76-3.51-13.05 0-7.29 3.42-12.96 3.51-5.76 9.63-8.91 6.12-3.24 13.77-3.24 7.2 0 13.14 2.97 5.94 2.88 9.45 8.55 3.51 5.67 3.51 13.77 0 0.9-0.09 2.07-0.09 1.17-0.18 2.16h-38.61v-9h29.52l-6.48 2.52q0.09-3.33-1.26-5.76-1.26-2.43-3.6-3.78-2.25-1.35-5.31-1.35-3.06 0-5.4 1.35-2.25 1.35-3.51 3.87-1.26 2.43-1.26 5.76v2.61q0 3.6 1.44 6.21 1.53 2.61 4.32 4.05 2.79 1.35 6.66 1.35 3.6 0 6.12-0.99 2.61-1.08 5.13-3.24l9 9.36q-3.51 3.87-8.64 5.94-5.13 1.98-12.15 1.98zm44.89-0.81l-20.07-48.78h17.55l16.02 40.77h-8.82l16.83-40.77h16.29l-20.16 48.78z"/>
	<path class="s6" d="m462.74 167.26q-7.74 0-14.94-1.89-7.11-1.98-11.61-5.04l5.85-13.14q4.23 2.7 9.72 4.5 5.58 1.71 11.07 1.71 3.69 0 5.94-0.63 2.25-0.72 3.24-1.8 1.08-1.17 1.08-2.7 0-2.16-1.98-3.42-1.98-1.26-5.13-2.07-3.15-0.81-7.02-1.62-3.78-0.81-7.65-2.07-3.78-1.26-6.93-3.24-3.15-2.07-5.13-5.31-1.98-3.33-1.98-8.37 0-5.67 3.06-10.26 3.15-4.59 9.36-7.38 6.21-2.79 15.48-2.79 6.21 0 12.15 1.44 6.03 1.35 10.71 4.05l-5.49 13.23q-4.5-2.43-8.91-3.6-4.41-1.26-8.55-1.26-3.69 0-5.94 0.81-2.25 0.72-3.24 1.98-0.99 1.26-0.99 2.88 0 2.07 1.89 3.33 1.98 1.17 5.13 1.98 3.24 0.72 7.02 1.53 3.87 0.81 7.65 2.07 3.87 1.17 7.02 3.24 3.15 1.98 5.04 5.31 1.98 3.24 1.98 8.19 0 5.49-3.15 10.17-3.06 4.59-9.27 7.38-6.12 2.79-15.48 2.79zm35.32-1.26v-66.78h17.1v66.78zm48.73 0.81q-5.94 0-10.71-2.34-4.68-2.34-7.38-7.29-2.61-5.04-2.61-12.69v-27.27h17.1v24.48q0 5.67 2.07 8.1 2.16 2.43 6.03 2.43 2.52 0 4.59-1.17 2.07-1.17 3.33-3.69 1.26-2.61 1.26-6.66v-23.49h17.1v48.78h-16.29v-13.77l3.15 3.87q-2.52 5.4-7.29 8.1-4.77 2.61-10.35 2.61zm65.65 17.46q-7.02 0-13.41-1.62-6.3-1.62-10.8-4.77l6.21-11.97q3.06 2.43 7.56 3.78 4.59 1.44 8.91 1.44 6.93 0 9.99-3.06 3.06-2.97 3.06-8.73v-5.76l0.9-13.68-0.09-13.77v-8.91h16.29v39.87q0 13.86-7.47 20.52-7.47 6.66-21.15 6.66zm-2.97-20.79q-6.48 0-11.97-2.88-5.4-2.97-8.73-8.19-3.24-5.31-3.24-12.51 0-7.2 3.24-12.42 3.33-5.31 8.73-8.19 5.49-2.88 11.97-2.88 6.21 0 10.62 2.52 4.41 2.43 6.66 7.65 2.34 5.22 2.34 13.32 0 8.1-2.34 13.32-2.25 5.22-6.66 7.74-4.41 2.52-10.62 2.52zm4.05-13.59q3.06 0 5.4-1.26 2.43-1.26 3.78-3.51 1.44-2.25 1.44-5.22 0-2.97-1.44-5.22-1.35-2.25-3.78-3.42-2.34-1.26-5.4-1.26-3.06 0-5.49 1.26-2.43 1.17-3.87 3.42-1.35 2.25-1.35 5.22 0 2.97 1.35 5.22 1.44 2.25 3.87 3.51 2.43 1.26 5.49 1.26z"/>
</svg>